#N canvas 1237 117 552 686 10;
#X obj 201 101 cnv 15 238 203 empty empty empty 0 0 0 14 -163519 -66577
0;
#X obj 219 121 LFO~;
#X text 239 234 <== Ring Modulation;
#X obj 222 272 hsl 160 15 0 1 0 0 empty empty MIXER 70 8 0 10 -262144
-1 -1 0 1;
#X floatatom 386 271 5 0 0 0 - - -;
#X text 239 251 <== Use with Mixer;
#X text 216 285 0%;
#X text 372 286 100%;
#X obj 48 251 inlet~;
#X obj 129 276 spigot~;
#X obj 49 483 *~;
#X obj 144 364 sig~;
#X obj 129 391 +~;
#X obj 130 416 *~ 0.5;
#X obj 131 442 spigot~;
#X obj 180 501 spigot~;
#X obj 253 517 *~;
#X obj 238 542 +~;
#X obj 239 569 spigot~;
#X obj 181 610 outlet~;
#X obj 224 28 inlet;
#X obj 499 52 inlet;
#X msg 496 218 0;
#X obj 260 103 cnv 15 1 1 empty empty Amplitude 20 8 0 14 -163519 -66577
0;
#X obj 224 51 unpack f f f f f;
#X obj 219 235 tgl 15 0 empty empty empty 17 7 0 10 -262144 -1 -1 1
1;
#X obj 219 253 tgl 15 0 empty empty empty 17 7 0 10 -262144 -1 -1 0
1;
#X connect 1 0 9 0;
#X connect 1 2 11 0;
#X connect 3 0 4 0;
#X connect 4 0 16 1;
#X connect 8 0 10 0;
#X connect 8 0 17 0;
#X connect 9 0 12 0;
#X connect 9 1 10 1;
#X connect 10 0 15 0;
#X connect 11 0 12 1;
#X connect 12 0 13 0;
#X connect 13 0 14 0;
#X connect 14 0 10 1;
#X connect 15 0 19 0;
#X connect 15 1 16 0;
#X connect 16 0 17 1;
#X connect 17 0 18 0;
#X connect 18 1 19 0;
#X connect 20 0 24 0;
#X connect 21 0 1 2;
#X connect 21 0 22 0;
#X connect 22 0 3 0;
#X connect 22 0 1 0;
#X connect 22 0 1 1;
#X connect 22 0 25 0;
#X connect 22 0 26 0;
#X connect 24 1 1 0;
#X connect 24 2 1 1;
#X connect 24 3 25 0;
#X connect 24 4 3 0;
#X connect 24 4 26 0;
#X connect 25 0 9 1;
#X connect 25 0 14 1;
#X connect 26 0 15 1;
#X connect 26 0 18 1;
#X coords 0 -1 1 1 240 205 2 200 100;
