#N canvas 533 67 744 740 10;
#X obj 101 101 cnv 15 231 118 play_opt empty empty 20 12 0 14 -163519
-66577 0;
#X obj 342 241 receive play_opt;
#X obj 159 409 soundfiler;
#X obj 159 360 openpanel;
#X obj 159 137 bng 15 250 50 0 empty empty empty 17 7 0 10 -262144
-1 -1;
#X obj 555 65 adc~;
#X obj 133 173 bng 15 250 50 0 empty empty empty 17 7 0 10 -262144
-1 -1;
#X msg 411 160 stop;
#X msg 410 108 stop;
#X obj 217 106 tgl 15 0 empty empty empty 17 7 0 10 -262144 -1 -1 0
1;
#X obj 436 -84 sel 1;
#X obj 436 -44 timer;
#X obj 283 106 bng 15 250 50 0 empty empty empty 17 7 0 10 -262144
-1 -1;
#X msg 436 29 resize \$1;
#X floatatom 436 5 5 0 0 0 - - -;
#X msg 217 48 0;
#X obj 556 150 spigot;
#X obj 269 174 tgl 15 0 empty empty empty 17 7 0 10 -262144 -1 -1 0
1;
#X obj 202 174 bng 15 250 50 0 empty empty empty 17 7 0 10 -262144
-1 -1;
#X text 196 158 STOP;
#X obj 556 124 *~;
#X obj 159 106 tgl 15 0 empty empty empty 17 7 0 10 -262144 -1 -1 0
1;
#X text 127 157 PLAY;
#X obj 193 258 tgl 15 0 empty empty empty 17 7 0 10 -262144 -1 -1 0
1;
#X obj 193 292 sel 1;
#X obj 436 -20 * 44;
#X obj 384 135 sel 1;
#X msg 133 -4 0;
#X obj 159 333 spigot;
#X obj 242 -10 spigot;
#X obj 330 -45 == 0;
#X obj 330 -25 tgl 15 0 empty empty empty 17 7 0 10 -262144 -1 -1 0
1;
#X obj 258 106 tgl 15 0 empty empty empty 17 7 0 10 -262144 -1 -1 0
1;
#X text 121 108 MIC;
#X text 121 132 FILE;
#X text 175 136 SELECT;
#X text 177 105 LIVE;
#X text 235 105 REC;
#X obj 105 114 vradio 15 1 0 2 play_opt empty empty 0 -8 0 10 -262144
-4160 -1 0;
#X text 301 106 STOP;
#X text 263 158 LOOP;
#X obj 555 227 outlet~;
#N canvas 0 0 450 300 (subpatch) 0;
#X array - 928086 float 0;
#X coords 0 1 928085 -1 1 1 2 0 0;
#X restore 568 216 graph;
#X obj 105 -62 inlet;
#X msg 105 -28 0;
#X msg 159 385 read -resize \$1 -;
#X obj 556 101 tabwrite~ -;
#X obj 556 180 tabplay~ -;
#X obj 436 53 s -;
#X msg 342 275 \; - const 0;
#X connect 1 0 23 0;
#X connect 1 0 49 0;
#X connect 1 0 30 0;
#X connect 3 0 45 0;
#X connect 4 0 28 0;
#X connect 5 0 20 0;
#X connect 5 0 46 0;
#X connect 6 0 27 0;
#X connect 6 0 47 0;
#X connect 7 0 47 0;
#X connect 8 0 46 0;
#X connect 9 0 29 0;
#X connect 10 0 11 0;
#X connect 10 0 46 0;
#X connect 11 0 25 0;
#X connect 12 0 8 0;
#X connect 12 0 11 1;
#X connect 12 0 15 0;
#X connect 12 0 27 0;
#X connect 13 0 48 0;
#X connect 14 0 13 0;
#X connect 15 0 9 0;
#X connect 16 0 6 0;
#X connect 17 0 16 1;
#X connect 18 0 7 0;
#X connect 20 0 41 0;
#X connect 21 0 20 1;
#X connect 21 0 26 0;
#X connect 23 0 24 0;
#X connect 23 0 28 1;
#X connect 24 0 4 0;
#X connect 24 0 27 0;
#X connect 25 0 14 0;
#X connect 26 0 18 0;
#X connect 26 0 44 0;
#X connect 27 0 21 0;
#X connect 28 0 3 0;
#X connect 29 0 32 0;
#X connect 30 0 31 0;
#X connect 31 0 29 1;
#X connect 32 0 10 0;
#X connect 43 0 44 0;
#X connect 44 0 38 0;
#X connect 45 0 2 0;
#X connect 47 0 41 0;
#X connect 47 1 16 0;
#X coords 0 -1 1 1 233 120 2 100 100;
