#N canvas 1214 328 601 446 10;
#X obj 151 11 cnv 15 238 258 empty empty empty 20 12 0 14 -163519 -66577
0;
#X obj -71 352 outlet~;
#X obj -69 7 inlet~;
#X obj -69 209 +~;
#X obj 176 36 hsl 160 15 1 1000 1 0 empty empty empty -2 -8 0 10 -262144
-1 -1 10000 1;
#X obj -53 55 sig~;
#X floatatom 340 36 5 0 0 0 - - -;
#X obj -31 262 *~;
#X obj 176 230 hsl 160 15 0 1 0 0 empty empty MIXER 70 8 0 10 -262144
-1 -1 0 1;
#X obj -31 295 +~;
#X obj 173 91 LFO~;
#X obj -14 145 +~;
#X obj 53 57 sig~;
#X obj 37 87 +~;
#X obj -53 117 spigot~;
#X obj -14 178 spigot~;
#X obj -70 233 spigot~;
#X floatatom 340 230 5 0 0 0 - - -;
#X text 193 208 <== Use with Mixer;
#X text 193 69 <== Use with LFO;
#X obj -54 87 vd~ delayline1;
#X obj -59 30 delwrite~ delayline1 1000;
#X text 324 49 1000;
#X text 170 243 0%;
#X text 326 244 100%;
#X text 171 48 1;
#X obj 173 -56 inlet;
#X obj 427 -55 inlet;
#X msg 427 -29 0;
#X obj 229 12 cnv 15 1 1 empty empty Delay 20 12 0 14 -163519 -66577
0;
#X obj 446 283 inlet;
#X obj 259 -54 unpack f f f f f;
#X obj -71 327 *~;
#X obj 36 117 *~ 4;
#X obj 174 70 tgl 15 0 empty empty empty 17 7 0 10 -262144 -1 -1 0
1;
#X obj 174 210 tgl 15 0 empty empty empty 17 7 0 10 -262144 -1 -1 0
1;
#X connect 2 0 3 0;
#X connect 2 0 21 0;
#X connect 2 0 9 1;
#X connect 3 0 16 0;
#X connect 4 0 6 0;
#X connect 5 0 20 0;
#X connect 6 0 5 0;
#X connect 7 0 9 0;
#X connect 8 0 17 0;
#X connect 9 0 32 0;
#X connect 10 0 13 0;
#X connect 10 2 12 0;
#X connect 11 0 15 0;
#X connect 12 0 13 1;
#X connect 13 0 33 0;
#X connect 14 0 3 1;
#X connect 14 1 11 0;
#X connect 15 1 3 1;
#X connect 16 0 32 0;
#X connect 16 1 7 0;
#X connect 17 0 7 1;
#X connect 20 0 14 0;
#X connect 26 0 31 0;
#X connect 27 0 28 0;
#X connect 28 0 4 0;
#X connect 28 0 10 2;
#X connect 28 0 8 0;
#X connect 28 0 34 0;
#X connect 28 0 35 0;
#X connect 30 0 32 1;
#X connect 31 1 4 0;
#X connect 31 2 10 0;
#X connect 31 3 10 1;
#X connect 31 3 34 0;
#X connect 31 4 8 0;
#X connect 31 4 35 0;
#X connect 32 0 1 0;
#X connect 33 0 11 1;
#X connect 34 0 14 1;
#X connect 34 0 15 1;
#X connect 35 0 16 1;
#X coords 0 -1 1 1 240 260 2 150 10;
