#N canvas 817 147 550 598 10;
#X obj 101 11 cnv 15 238 258 empty empty empty 20 12 0 14 -163519 -66577
0;
#X obj 123 37 hsl 160 15 -1000 1000 0 0 empty freq empty -2 -8 0 10
-262144 -1 -1 13550 1;
#X obj 120 70 tgl 15 0 empty lfo_tog empty 17 7 0 10 -262144 -1 -1
1 1;
#X text 140 69 <== Use with LFO;
#X text 103 49 -1000;
#X text 271 51 1000;
#X floatatom 288 37 5 0 0 0 - - -;
#X obj -122 468 outlet~;
#X obj 123 229 hsl 160 15 0 1 0 0 empty mix MIXER 70 8 0 10 -262144
-1 -1 0 1;
#X floatatom 290 228 5 0 0 0 - - -;
#X obj -121 284 *~;
#X obj -55 34 sig~;
#X obj -54 179 phasor~;
#X obj -10 207 +~ -0.25;
#X obj -53 233 cos~;
#X obj -9 232 cos~;
#X obj -122 234 hilbert~;
#X obj -76 282 *~;
#X obj -121 319 -~;
#X text 119 242 0%;
#X text 275 242 100%;
#X obj 13 33 sig~;
#X obj 0 66 +~;
#X obj -55 65 spigot~;
#X obj -16 111 +~;
#X obj -104 174 inlet~;
#X obj -1 89 *~ 1000;
#X text 141 209 <== Use with Mixer;
#X obj -121 347 spigot~;
#X obj -83 378 *~;
#X obj -17 132 spigot~;
#X obj -84 405 +~;
#X obj -96 436 spigot~;
#X msg 368 127 0;
#X obj 368 83 inlet;
#X obj 368 106 bng 15 250 50 0 empty empty empty 17 7 0 10 -262144
-1 -1;
#X obj 120 -68 inlet;
#X obj 143 12 cnv 15 1 1 empty empty Frequency_Shift 20 12 0 14 -163519
-66577 0;
#X obj 120 91 LFO~;
#X obj 120 -44 unpack f f f f f;
#X msg 156 -13 1;
#X floatatom -78 -24 5 0 0 0 - - -;
#X obj 121 210 tgl 15 0 empty empty empty 17 7 0 10 -262144 -1 -1 1
1;
#X connect 1 0 6 0;
#X connect 2 0 23 1;
#X connect 2 0 30 1;
#X connect 6 0 11 0;
#X connect 8 0 9 0;
#X connect 9 0 29 1;
#X connect 10 0 18 0;
#X connect 11 0 23 0;
#X connect 12 0 14 0;
#X connect 12 0 13 0;
#X connect 13 0 15 0;
#X connect 14 0 10 1;
#X connect 15 0 17 1;
#X connect 16 0 10 0;
#X connect 16 1 17 0;
#X connect 17 0 18 1;
#X connect 18 0 28 0;
#X connect 21 0 22 1;
#X connect 22 0 26 0;
#X connect 23 0 12 0;
#X connect 23 1 24 0;
#X connect 24 0 30 0;
#X connect 25 0 16 0;
#X connect 25 0 31 1;
#X connect 26 0 24 1;
#X connect 28 0 7 0;
#X connect 28 1 29 0;
#X connect 29 0 31 0;
#X connect 30 1 12 0;
#X connect 31 0 32 0;
#X connect 32 1 7 0;
#X connect 33 0 2 0;
#X connect 33 0 1 0;
#X connect 33 0 8 0;
#X connect 33 0 42 0;
#X connect 34 0 35 0;
#X connect 34 0 38 2;
#X connect 35 0 33 0;
#X connect 36 0 39 0;
#X connect 38 0 22 0;
#X connect 38 2 21 0;
#X connect 39 1 1 0;
#X connect 39 1 41 0;
#X connect 39 2 40 0;
#X connect 39 2 38 0;
#X connect 39 3 38 1;
#X connect 39 3 40 0;
#X connect 39 4 8 0;
#X connect 39 4 42 0;
#X connect 40 0 2 0;
#X connect 42 0 28 1;
#X connect 42 0 32 1;
#X coords 0 -1 1 1 240 260 2 100 10;
