#N canvas 269 100 1920 997 10;
#X obj 322 194 s dalek;
#X obj 338 215 s C3PO;
#X obj 385 172 s echo;
#X obj 368 152 s uw;
#X obj 292 172 s full_reset;
#X obj 905 57 r gollum;
#X obj 875 110 s pre_freq;
#X obj 905 130 s pre_L1_spd;
#X obj 137 597 r pre_L1_spd;
#X obj 157 617 r pre_L1_dep;
#X obj 934 151 s pre_L1_dep;
#X obj 178 637 r pre_mix1;
#X obj 353 237 s gollum;
#X msg 905 87 50;
#X msg 875 87 265;
#X msg 934 86 0.51;
#X obj 302 576 r pre_del;
#X obj 322 596 r pre_L2_spd;
#X obj 342 616 r pre_L2_dep;
#X obj 363 637 r pre_mix2;
#X obj 478 590 r pre_L3_spd;
#X obj 498 610 r pre_L3_dep;
#X obj 913 185 r uw;
#X obj 883 238 s pre_del;
#X obj 913 258 s pre_L2_spd;
#X obj 942 279 s pre_L2_dep;
#X obj 974 300 s pre_mix2;
#X msg 974 214 1;
#X msg 942 214 0.43;
#X msg 913 215 17;
#X msg 883 215 90;
#X obj 1070 256 s pre_freq;
#X obj 1105 276 s pre_L1_spd;
#X obj 1134 297 s pre_L1_dep;
#X obj 1100 203 r demon;
#X obj 1202 276 s pre_fb;
#X obj 1172 254 s pre_del;
#X msg 1172 232 32;
#X msg 1202 232 0.666;
#X msg 1134 232 0.275;
#X msg 1105 233 44;
#X msg 1070 233 -754;
#X obj 292 104 r settings;
#X obj 101 101 cnv 15 98 168 empty empty Presets 20 12 0 14 -163519
-66577 0;
#X obj 109 126 vradio 15 1 0 9 empty empty empty 0 -8 0 10 -262144
-4160 -1 0;
#X text 127 140 Telephone;
#X text 128 201 Underwater;
#X text 128 156 Dalek;
#X text 127 171 C3PO;
#X text 128 216 Echo;
#X text 128 231 Demon;
#X text 127 186 Gollum;
#X text 126 125 Custom;
#X obj 1049 103 s pre_freq;
#X obj 1079 50 r dalek;
#X obj 1084 123 s pre_L3_spd;
#X obj 1113 144 s pre_L3_dep;
#X msg 1084 80 31;
#X msg 1113 79 1;
#X obj 539 649 r pre_mix3;
#X msg 1049 80 55;
#X text 128 246 Random;
#X obj 1515 231 r random;
#X obj 415 216 s random;
#X obj 1515 260 bng 15 250 50 0 empty empty empty 17 7 0 10 -262144
-1 -1;
#X obj 1489 312 random 2;
#X obj 1501 312 random 2;
#X obj 1511 312 random 2;
#X obj 1523 312 random 2;
#X obj 1535 312 random 2;
#X obj 1220 509 s pre_freq;
#X obj 1292 523 s pre_L1_spd;
#X obj 1356 500 s pre_L1_dep;
#X obj 1436 479 s pre_del;
#X obj 1372 566 s pre_mix1;
#X obj 1436 526 s pre_L2_spd;
#X obj 1513 498 s pre_L2_dep;
#X obj 1516 567 s pre_mix2;
#X obj 1596 501 s pre_fb;
#X obj 1679 481 s pre_L3_spd;
#X obj 1679 548 s pre_L3_dep;
#X obj 1759 502 s pre_mix3;
#X obj 1489 357 sel 1;
#X obj 1501 357 sel 1;
#X obj 1511 357 sel 1;
#X obj 1523 357 sel 1;
#X obj 1535 357 sel 1;
#X obj 1220 429 random 1000;
#X obj 1264 474 * -1;
#X obj 1297 430 random 2;
#X obj 1264 454 spigot;
#X obj 1220 454 spigot;
#X obj 1316 455 == 0;
#X obj 1292 500 random 50;
#X obj 1356 456 random 10;
#X obj 1356 477 / 10;
#X obj 1372 524 random 10;
#X obj 1372 544 / 10;
#X obj 1436 456 random 1000;
#X obj 1436 505 random 50;
#X obj 1513 456 random 10;
#X obj 1513 477 / 10;
#X obj 1516 526 random 10;
#X obj 1516 546 / 10;
#X obj 1596 460 random 10;
#X obj 1596 481 / 10;
#X obj 1679 459 random 50;
#X obj 1679 505 random 10;
#X obj 1679 526 / 10;
#X obj 1759 459 random 10;
#X obj 1759 480 / 10;
#X obj 518 630 r pre_rm;
#X obj 97 713 outlet;
#X obj 282 725 outlet;
#X obj 458 724 outlet;
#X obj 876 530 r g3;
#X obj 890 511 r g4;
#X obj 904 571 r g5;
#X obj 1059 512 r g16;
#X text 942 473 Gain;
#X text 478 542 Amp;
#X obj 1637 101 s g2;
#X obj 1669 33 r telephone;
#X obj 307 258 s telephone;
#X obj 1668 101 s g3;
#X obj 834 617 pack f f f f f f f f f f f f f f f f f;
#X obj 834 642 outlet;
#X obj 918 551 r g6;
#X obj 932 531 r g7;
#X obj 946 512 r g8;
#X obj 960 569 r g9;
#X obj 974 549 r g10;
#X obj 988 530 r g11;
#X obj 1002 511 r g12;
#X obj 1016 570 r g13;
#X obj 1030 551 r g14;
#X obj 1044 531 r g15;
#X obj 848 568 r g1;
#X obj 862 549 r g2;
#X obj 1306 175 r echo;
#X msg 1276 205 175;
#X obj 1276 228 s pre_del;
#X obj 1311 248 s pre_fb;
#X msg 1311 205 0.7;
#X obj 399 194 s demon;
#X obj 494 399 bng 15 250 50 0 empty empty empty 17 7 0 10 -262144
-1 -1;
#X obj 31 332 outlet;
#X obj 109 295 s settings;
#X obj 97 690 pack f f f f f;
#X obj 282 704 pack f f f f f;
#X obj 458 704 pack f f f f f;
#X obj 618 613 pack f f;
#X obj 618 637 outlet;
#X obj 117 578 r pre_freq;
#X obj 494 374 loadbang;
#X obj 282 676 r del_check;
#X obj 458 674 r amp_check;
#X obj 618 589 r fb_check;
#X obj 97 667 r freq_check;
#X obj 42 638 s freq_check;
#X msg 42 613 1;
#X msg 269 618 1;
#X obj 269 644 s del_check;
#X msg 587 544 1;
#X obj 587 570 s fb_check;
#X msg 442 624 1;
#X obj 442 650 s amp_check;
#X text 106 547 Frequency;
#X text 298 550 Delay;
#X text 630 525 Feedback;
#X msg 264 461 0 0 0 0 0;
#X msg 618 506 0;
#X msg 776 493 1;
#X obj 1335 118 s pre_del;
#X msg 1335 79 10;
#X obj 1373 142 s pre_fb;
#X msg 1373 78 0.9;
#X obj 1407 108 s pre_mix2;
#X msg 1407 75 0.9;
#X obj 1415 29 r C3PO;
#X obj 776 518 s gain_check;
#X msg 734 585 0;
#X obj 834 593 r gain_check;
#X msg 1643 67 0.9;
#X msg 782 600 0.9;
#X msg 1606 77 0;
#X msg 1698 77 0;
#X obj 1606 101 s g1;
#X obj 1698 101 s g4;
#X msg 1657 120 0;
#X obj 1607 149 s g5;
#X obj 1638 149 s g6;
#X obj 1669 149 s g7;
#X obj 1699 149 s g8;
#X obj 1605 182 s g9;
#X obj 1637 182 s g10;
#X obj 1667 182 s g11;
#X obj 1697 182 s g12;
#X obj 1604 215 s g13;
#X obj 1635 215 s g14;
#X obj 1666 215 s g15;
#X obj 1696 215 s g16;
#X obj 663 568 bang;
#X obj 663 568 r pre_fb;
#X text 489 350 Initialise;
#X obj 292 128 route 0 1 2 3 4 5 6 7;
#X obj 98 20 inlet;
#X msg 98 49 0;
#X connect 5 0 14 0;
#X connect 5 0 13 0;
#X connect 5 0 15 0;
#X connect 8 0 148 2;
#X connect 8 0 160 0;
#X connect 9 0 148 3;
#X connect 9 0 160 0;
#X connect 11 0 148 4;
#X connect 11 0 160 0;
#X connect 13 0 7 0;
#X connect 14 0 6 0;
#X connect 15 0 10 0;
#X connect 16 0 149 1;
#X connect 16 0 161 0;
#X connect 17 0 149 2;
#X connect 17 0 161 0;
#X connect 18 0 149 3;
#X connect 18 0 161 0;
#X connect 19 0 149 4;
#X connect 19 0 161 0;
#X connect 20 0 150 1;
#X connect 20 0 165 0;
#X connect 21 0 150 2;
#X connect 21 0 165 0;
#X connect 22 0 30 0;
#X connect 22 0 29 0;
#X connect 22 0 28 0;
#X connect 27 0 26 0;
#X connect 28 0 25 0;
#X connect 29 0 24 0;
#X connect 30 0 23 0;
#X connect 34 0 41 0;
#X connect 34 0 40 0;
#X connect 34 0 39 0;
#X connect 34 0 37 0;
#X connect 34 0 38 0;
#X connect 37 0 36 0;
#X connect 38 0 35 0;
#X connect 39 0 33 0;
#X connect 40 0 32 0;
#X connect 41 0 31 0;
#X connect 42 0 205 0;
#X connect 44 0 146 0;
#X connect 44 0 145 0;
#X connect 44 0 147 0;
#X connect 54 0 60 0;
#X connect 54 0 57 0;
#X connect 54 0 58 0;
#X connect 57 0 55 0;
#X connect 58 0 56 0;
#X connect 59 0 150 4;
#X connect 59 0 165 0;
#X connect 60 0 53 0;
#X connect 62 0 64 0;
#X connect 64 0 65 0;
#X connect 64 0 66 0;
#X connect 64 0 67 0;
#X connect 64 0 68 0;
#X connect 64 0 69 0;
#X connect 65 0 82 0;
#X connect 66 0 83 0;
#X connect 67 0 84 0;
#X connect 68 0 85 0;
#X connect 69 0 86 0;
#X connect 82 0 87 0;
#X connect 82 0 89 0;
#X connect 82 0 93 0;
#X connect 82 0 94 0;
#X connect 82 0 96 0;
#X connect 83 0 98 0;
#X connect 83 0 99 0;
#X connect 83 0 100 0;
#X connect 83 0 102 0;
#X connect 84 0 104 0;
#X connect 85 0 106 0;
#X connect 85 0 107 0;
#X connect 85 0 109 0;
#X connect 87 0 90 0;
#X connect 87 0 91 0;
#X connect 88 0 70 0;
#X connect 89 0 90 1;
#X connect 89 0 92 0;
#X connect 90 0 88 0;
#X connect 91 0 70 0;
#X connect 92 0 91 1;
#X connect 93 0 71 0;
#X connect 94 0 95 0;
#X connect 95 0 72 0;
#X connect 96 0 97 0;
#X connect 97 0 74 0;
#X connect 98 0 73 0;
#X connect 99 0 75 0;
#X connect 100 0 101 0;
#X connect 101 0 76 0;
#X connect 102 0 103 0;
#X connect 103 0 77 0;
#X connect 104 0 105 0;
#X connect 105 0 78 0;
#X connect 106 0 79 0;
#X connect 107 0 108 0;
#X connect 108 0 80 0;
#X connect 109 0 110 0;
#X connect 110 0 81 0;
#X connect 111 0 150 3;
#X connect 111 0 165 0;
#X connect 115 0 125 3;
#X connect 115 0 172 0;
#X connect 116 0 125 4;
#X connect 116 0 172 0;
#X connect 117 0 125 5;
#X connect 117 0 172 0;
#X connect 118 0 125 16;
#X connect 118 0 172 0;
#X connect 122 0 183 0;
#X connect 122 0 185 0;
#X connect 122 0 189 0;
#X connect 122 0 186 0;
#X connect 125 0 126 0;
#X connect 127 0 125 6;
#X connect 127 0 172 0;
#X connect 128 0 125 7;
#X connect 128 0 172 0;
#X connect 129 0 125 8;
#X connect 129 0 172 0;
#X connect 130 0 125 9;
#X connect 130 0 172 0;
#X connect 131 0 125 10;
#X connect 131 0 172 0;
#X connect 132 0 125 11;
#X connect 132 0 172 0;
#X connect 133 0 125 12;
#X connect 133 0 172 0;
#X connect 134 0 125 13;
#X connect 134 0 172 0;
#X connect 135 0 125 14;
#X connect 135 0 172 0;
#X connect 136 0 125 15;
#X connect 136 0 172 0;
#X connect 137 0 125 1;
#X connect 137 0 172 0;
#X connect 138 0 125 2;
#X connect 138 0 172 0;
#X connect 139 0 140 0;
#X connect 139 0 143 0;
#X connect 140 0 141 0;
#X connect 143 0 142 0;
#X connect 145 0 170 0;
#X connect 145 0 171 0;
#X connect 145 0 181 0;
#X connect 145 0 184 0;
#X connect 145 0 202 0;
#X connect 148 0 112 0;
#X connect 149 0 113 0;
#X connect 150 0 114 0;
#X connect 151 0 152 0;
#X connect 153 0 148 1;
#X connect 153 0 160 0;
#X connect 154 0 145 0;
#X connect 155 0 149 0;
#X connect 156 0 150 0;
#X connect 157 0 151 0;
#X connect 158 0 148 0;
#X connect 160 0 159 0;
#X connect 161 0 162 0;
#X connect 163 0 164 0;
#X connect 165 0 166 0;
#X connect 170 0 148 0;
#X connect 170 0 149 0;
#X connect 170 0 150 0;
#X connect 171 0 151 0;
#X connect 172 0 180 0;
#X connect 174 0 173 0;
#X connect 176 0 175 0;
#X connect 178 0 177 0;
#X connect 179 0 174 0;
#X connect 179 0 176 0;
#X connect 179 0 178 0;
#X connect 181 0 125 0;
#X connect 182 0 125 0;
#X connect 183 0 121 0;
#X connect 183 0 124 0;
#X connect 184 0 125 1;
#X connect 184 0 125 2;
#X connect 184 0 125 3;
#X connect 184 0 125 4;
#X connect 184 0 125 5;
#X connect 184 0 125 6;
#X connect 184 0 125 7;
#X connect 184 0 125 8;
#X connect 184 0 125 9;
#X connect 184 0 125 10;
#X connect 184 0 125 11;
#X connect 184 0 125 12;
#X connect 184 0 125 13;
#X connect 184 0 125 14;
#X connect 184 0 125 15;
#X connect 184 0 125 16;
#X connect 185 0 187 0;
#X connect 186 0 188 0;
#X connect 189 0 190 0;
#X connect 189 0 191 0;
#X connect 189 0 192 0;
#X connect 189 0 193 0;
#X connect 189 0 194 0;
#X connect 189 0 195 0;
#X connect 189 0 196 0;
#X connect 189 0 197 0;
#X connect 189 0 198 0;
#X connect 189 0 199 0;
#X connect 189 0 200 0;
#X connect 189 0 201 0;
#X connect 202 0 181 0;
#X connect 203 0 151 1;
#X connect 203 0 163 0;
#X connect 205 0 4 0;
#X connect 205 1 123 0;
#X connect 205 2 0 0;
#X connect 205 3 1 0;
#X connect 205 4 12 0;
#X connect 205 5 3 0;
#X connect 205 6 2 0;
#X connect 205 7 144 0;
#X connect 205 8 63 0;
#X connect 206 0 207 0;
#X connect 207 0 44 0;
#X coords 0 -1 1 1 100 170 1 100 100;
