#N canvas 0 0 1920 997 10;
#X obj 201 -199 cnv 15 858 398 empty empty empty 20 12 0 14 -191407
-66577 0;
#X obj 1066 -243 r full_reset;
#X obj -111 -49 delwrite~ feedback 1000;
#X obj -70 77 vd~ feedback;
#X obj -69 101 +~;
#X obj -120 142 sig~;
#X obj -85 198 s~ feedback;
#X obj -111 -74 r~ feedback;
#X obj -85 170 *~;
#X obj 38 -46 spigot~;
#X obj 37 -25 spigot~;
#X obj 36 -2 spigot~;
#X obj 36 23 spigot~;
#X text 11 -84 Master Mixer;
#X msg 1065 -199 0;
#X obj 1065 -178 s main_freq_tog;
#X obj 1077 -156 s main_del_tog;
#X obj 453 -234 s main_freq_tog;
#X obj 672 -235 s main_del_tog;
#X obj 36 47 spigot~;
#X obj 60 146 +~;
#X obj 813 -65 Feedback~;
#X obj 813 -11 Amplitude~;
#X obj 59 170 spigot~;
#X obj 208 288 s full_reset;
#X obj 955 -236 s main_amp_tog;
#X obj 1089 -135 s main_amp_tog;
#X obj 819 226 s fb_val;
#X obj -120 120 r fb_val;
#X obj 98 -43 s~ freq_sig_in;
#X obj 97 24 s~ delay_sig_in;
#X obj 98 -22 s~ amp_sig_in;
#X obj 98 0 s~ filter_sig_in;
#X obj -77 -23 r~ freq_sig_out;
#X obj 318 -340 r~ freq_sig_in;
#X obj 564 -340 r~ delay_sig_in;
#X obj 816 -341 r~ amp_sig_in;
#X obj 453 -341 r~ filter_sig_in;
#X obj -77 47 r~ delay_sig_out;
#X obj -77 22 r~ filter_sig_out;
#X obj 451 207 s~ filter_sig_out;
#X obj 318 362 s~ freq_sig_out;
#X obj 565 206 s~ delay_sig_out;
#X obj 813 205 s~ amp_sig_out;
#X obj 317 -66 FreqShift~;
#X obj -77 0 r~ amp_sig_out;
#X obj 565 -66 Delay~;
#X obj 1110 -94 s main_fb_tog;
#X obj 1100 -114 s main_gain_tog;
#X obj 848 -247 s main_fb_tog;
#X obj 226 204 s freq_arg_in;
#X obj 245 225 s del_arg_in;
#X obj 282 266 s fb_arg_in;
#X obj 263 246 s amp_arg_in;
#X obj 433 -278 r freq_arg_in;
#X obj 643 -282 r del_arg_in;
#X obj 848 -290 r fb_arg_in;
#X obj 209 -65 cnv 15 98 80 empty empty empty 20 12 0 14 -163519 -66577
0;
#X obj 215 -61 tgl 15 0 empty main_freq_tog empty 17 7 0 10 -262144
-1 -1 0 1;
#X obj 215 -47 tgl 15 0 empty main_amp_tog empty 17 7 0 10 -262144
-1 -1 0 1;
#X obj 215 -32 tgl 15 0 empty main_gain_tog empty 17 7 0 10 -262144
-1 -1 0 1;
#X obj 215 -18 tgl 15 0 del_b main_del_tog empty 17 7 0 10 -262144
-1 -1 0 1;
#X obj 215 -4 tgl 15 0 empty main_fb_tog empty 17 7 0 10 -262144 -1
-1 0 1;
#X text 235 -63 Frequency;
#X text 235 -19 Delay;
#X text 235 -5 Feeback;
#X text 234 -48 Amplitude;
#X text 235 -33 Gain;
#X obj 301 287 s gain_arg_in;
#X obj 680 -340 r gain_arg_in;
#X obj 929 -266 r amp_arg_in;
#X obj 680 -311 s main_gain_tog;
#X obj 798 -245 r del_b;
#X obj 208 24 presets;
#X obj 452 -192 GraphicEqualiser~;
#X obj 36 215 *~;
#X obj 16 276 dac~ 1 2;
#X obj 209 -192 Controler~;
#X obj 209 -323 loadbang;
#X msg 242 -303 0.5;
#X obj 244 -96 hsl 147 15 0 1.1 0 0 empty empty VOLUME 55 8 0 10 -262144
-258113 -4160 6636 1;
#X text 230 -97 0;
#X text 395 -97 11;
#X obj 367 -155 bng 15 250 50 0 full_reset empty empty 17 7 0 10 -262144
-1 -1;
#X text 385 -156 RESET;
#X connect 1 0 14 0;
#X connect 1 0 44 2;
#X connect 1 0 46 2;
#X connect 1 0 21 1;
#X connect 1 0 22 2;
#X connect 1 0 74 2;
#X connect 3 0 4 0;
#X connect 4 0 8 1;
#X connect 4 0 20 0;
#X connect 5 0 8 0;
#X connect 7 0 2 0;
#X connect 8 0 6 0;
#X connect 9 0 10 0;
#X connect 9 1 29 0;
#X connect 10 0 11 0;
#X connect 10 1 31 0;
#X connect 11 0 12 0;
#X connect 11 1 32 0;
#X connect 12 0 19 0;
#X connect 12 1 30 0;
#X connect 14 0 15 0;
#X connect 14 0 16 0;
#X connect 14 0 26 0;
#X connect 14 0 47 0;
#X connect 14 0 48 0;
#X connect 19 0 75 0;
#X connect 19 1 20 1;
#X connect 20 0 23 0;
#X connect 21 0 27 0;
#X connect 22 0 43 0;
#X connect 23 1 75 0;
#X connect 28 0 5 0;
#X connect 33 0 10 0;
#X connect 34 0 44 0;
#X connect 35 0 46 0;
#X connect 36 0 22 0;
#X connect 37 0 74 0;
#X connect 38 0 19 0;
#X connect 39 0 12 0;
#X connect 44 0 41 0;
#X connect 45 0 11 0;
#X connect 46 0 42 0;
#X connect 54 0 44 1;
#X connect 54 0 17 0;
#X connect 55 0 46 1;
#X connect 55 0 18 0;
#X connect 56 0 21 0;
#X connect 56 0 49 0;
#X connect 58 0 9 1;
#X connect 59 0 10 1;
#X connect 60 0 11 1;
#X connect 61 0 12 1;
#X connect 62 0 19 1;
#X connect 62 0 23 1;
#X connect 69 0 71 0;
#X connect 69 0 74 1;
#X connect 70 0 22 1;
#X connect 70 0 25 0;
#X connect 72 0 46 3;
#X connect 73 0 24 0;
#X connect 73 1 50 0;
#X connect 73 2 51 0;
#X connect 73 3 53 0;
#X connect 73 4 52 0;
#X connect 73 5 68 0;
#X connect 74 0 40 0;
#X connect 75 0 76 0;
#X connect 75 0 76 1;
#X connect 77 0 9 0;
#X connect 77 0 2 0;
#X connect 78 0 79 0;
#X connect 78 0 77 0;
#X connect 78 0 83 0;
#X connect 79 0 80 0;
#X connect 80 0 75 1;
#X connect 83 0 73 0;
#X coords 0 -1 1 1 860 400 2 200 -200;
